<svg width="60" height="60" viewBox="0 0 60 60" fill="none" xmlns="http://www.w3.org/2000/svg">
<path d="M25.4532 7.2C10.2948 7.2 1.20001 19.3596 1.20001 25.44C1.20001 31.5204 4.23121 36.0804 10.2948 36.0804C16.3584 36.0804 19.3908 37.5996 19.3908 42.1596C19.3908 48.2388 23.9376 52.7988 30.0012 52.7988C49.7076 52.7988 58.8012 42.1596 58.8012 31.5204C58.8 13.2804 43.6392 7.2 25.4532 7.2ZM21.6636 13.2804C22.1619 13.281 22.6552 13.3798 23.1153 13.5711C23.5754 13.7623 23.9934 14.0424 24.3453 14.3951C24.6972 14.7479 24.9761 15.1666 25.1662 15.6272C25.3563 16.0878 25.4538 16.5813 25.4532 17.0796C25.4532 19.1796 23.7564 20.88 21.6636 20.88C19.5708 20.88 17.874 19.1784 17.874 17.0796C17.8734 16.5813 17.9709 16.0878 18.161 15.6272C18.3511 15.1666 18.6301 14.7479 18.982 14.3951C19.3339 14.0424 19.7518 13.7623 20.2119 13.5711C20.672 13.3798 21.1653 13.281 21.6636 13.2804ZM33.7884 13.2804C34.2867 13.281 34.78 13.3798 35.2401 13.5711C35.7002 13.7623 36.1182 14.0424 36.4701 14.3951C36.822 14.7479 37.1009 15.1666 37.291 15.6272C37.4811 16.0878 37.5786 16.5813 37.578 17.0796C37.5788 17.578 37.4814 18.0716 37.2914 18.5324C37.1013 18.9931 36.8224 19.4119 36.4705 19.7648C36.1186 20.1177 35.7006 20.3979 35.2404 20.5892C34.7802 20.7806 34.2868 20.8794 33.7884 20.88C33.2901 20.8792 32.7969 20.7803 32.3368 20.5889C31.8768 20.3975 31.4589 20.1173 31.1071 19.7644C30.7553 19.4115 30.4765 18.9928 30.2865 18.5321C30.0966 18.0714 29.9992 17.5779 30 17.0796C29.9987 16.0735 30.3971 15.108 31.1075 14.3956C31.818 13.6831 32.7823 13.282 33.7884 13.2804ZM45.9156 19.3596C46.4141 19.3601 46.9076 19.4588 47.3679 19.65C47.8283 19.8413 48.2464 20.1214 48.5985 20.4743C48.9505 20.8273 49.2295 21.2461 49.4196 21.7069C49.6098 22.1677 49.7072 22.6615 49.7064 23.16C49.7072 23.6584 49.6097 24.1521 49.4196 24.6129C49.2295 25.0736 48.9504 25.4924 48.5984 25.8452C48.2463 26.1981 47.8282 26.4781 47.3679 26.6692C46.9075 26.8603 46.414 26.9589 45.9156 26.9592C45.4173 26.9587 44.924 26.8601 44.4639 26.6688C44.0038 26.4776 43.5859 26.1976 43.234 25.8447C42.8822 25.4919 42.6034 25.0732 42.4134 24.6125C42.2235 24.1518 42.1263 23.6583 42.1272 23.16C42.1263 22.6617 42.2235 22.168 42.4134 21.7073C42.6033 21.2466 42.8822 20.8278 43.234 20.4748C43.5858 20.1219 44.0037 19.8418 44.4638 19.6504C44.924 19.459 45.4173 19.3602 45.9156 19.3596ZM11.0532 22.4004C11.5514 22.4009 12.0446 22.4995 12.5046 22.6907C12.9647 22.8818 13.3825 23.1617 13.7344 23.5144C14.0862 23.8672 14.365 24.2857 14.555 24.7463C14.745 25.2068 14.8424 25.7002 14.8416 26.1984C14.8416 28.2984 13.1448 29.9988 11.0532 29.9988C8.96161 29.9988 7.26361 28.2972 7.26361 26.1984C7.26266 25.1923 7.66134 24.2269 8.372 23.5147C9.08265 22.8025 10.0471 22.4017 11.0532 22.4004ZM30 37.5996C32.5116 37.5996 34.5468 39.6396 34.5468 42.1608C34.5468 44.6784 32.5116 46.7196 30 46.7196C27.4884 46.7196 25.4532 44.6784 25.4532 42.1608C25.4521 41.5627 25.5689 40.9703 25.7968 40.4173C26.0247 39.8644 26.3594 39.3618 26.7816 38.9382C27.2038 38.5146 27.7054 38.1784 28.2576 37.9487C28.8099 37.719 29.4019 37.6004 30 37.5996Z" fill="#545454"/>
</svg>
