<svg width="55" height="55" viewBox="0 0 55 55" fill="none" xmlns="http://www.w3.org/2000/svg">
<g clip-path="url(#clip0_102_2)">
<path fill-rule="evenodd" clip-rule="evenodd" d="M0 27.5C0 20.2065 2.89731 13.2118 8.05456 8.05456C13.2118 2.89731 20.2065 0 27.5 0C34.7935 0 41.7882 2.89731 46.9454 8.05456C52.1027 13.2118 55 20.2065 55 27.5C55 34.7935 52.1027 41.7882 46.9454 46.9454C41.7882 52.1027 34.7935 55 27.5 55C20.2065 55 13.2118 52.1027 8.05456 46.9454C2.89731 41.7882 0 34.7935 0 27.5ZM3.66667 27.5C3.66709 21.7969 5.71195 16.2828 9.43019 11.9585C13.1484 7.63408 18.2937 4.78587 23.9323 3.93067L25.6667 4.80333V6.204L23.012 7.53133C22.7251 7.67527 22.4811 7.89199 22.3042 8.15983C22.1274 8.42767 22.024 8.73724 22.0043 9.05758C21.9846 9.37793 22.0494 9.69783 22.1921 9.98529C22.3349 10.2728 22.5506 10.5177 22.8177 10.6957L28.3177 14.3623C28.6189 14.5616 28.9722 14.6675 29.3333 14.6667H31.1667C31.6529 14.6667 32.1192 14.4735 32.463 14.1297C32.8068 13.7859 33 13.3196 33 12.8333V11H34.8333V12.8333C34.8329 13.0743 34.88 13.3129 34.9718 13.5356C35.0637 13.7583 35.1985 13.9608 35.3687 14.1313L36.6667 15.4257V17.5743L35.9077 18.3333H33.4327L26.488 14.861C26.2331 14.7332 25.9518 14.6667 25.6667 14.6667C25.3815 14.6667 25.1003 14.7332 24.8453 14.861L21.5673 16.5H16.5C16.0911 16.5001 15.6939 16.637 15.3717 16.8888C15.0494 17.1406 14.8206 17.4929 14.7217 17.8897L12.8883 25.223C12.8112 25.5301 12.8149 25.8519 12.8991 26.1571C12.9832 26.4623 13.145 26.7405 13.3687 26.9647L18.8687 32.4647C19.0082 32.6032 19.1692 32.7183 19.3453 32.8057L22 34.1367V38.5C21.9996 38.7409 22.0466 38.9796 22.1385 39.2023C22.2303 39.425 22.3652 39.6274 22.5353 39.798L23.8333 41.0923V44C23.8334 44.2852 23.8999 44.5664 24.0277 44.8213L25.861 48.488C26.0134 48.7921 26.2474 49.0479 26.5369 49.2266C26.8263 49.4053 27.1598 49.5 27.5 49.5H31.1667C31.4686 49.4998 31.7658 49.4251 32.0319 49.2825C32.298 49.1398 32.5247 48.9337 32.692 48.6823L36.3587 43.1823C36.4005 43.1199 36.4385 43.055 36.4723 42.988L38.3057 39.3213C38.4334 39.0664 38.5 38.7852 38.5 38.5V35.4457L43.6333 28.6C43.8378 28.3274 43.9622 28.0032 43.9926 27.6638C44.0231 27.3245 43.9583 26.9833 43.8057 26.6787L43.3033 25.6667H45.837C46.3232 25.6667 46.7895 25.4735 47.1334 25.1297C47.4772 24.7859 47.6703 24.3196 47.6703 23.8333V22H50.699C51.4691 25.2708 51.5388 28.6675 50.9036 31.9672C50.2684 35.2669 48.9427 38.3949 47.0133 41.1461C45.084 43.8973 42.5947 46.2094 39.7089 47.9307C36.823 49.652 33.6057 50.7437 30.2682 51.134C26.9307 51.5243 23.5484 51.2044 20.3432 50.1954C17.138 49.1863 14.1824 47.5109 11.6704 45.2791C9.15836 43.0473 7.14664 40.3096 5.76727 37.2455C4.38789 34.1814 3.67203 30.8602 3.66667 27.5Z" fill="#545454"/>
</g>
<defs>
<clipPath id="clip0_102_2">
<rect width="55" height="55" fill="white"/>
</clipPath>
</defs>
</svg>
